<mxfile host="Electron" modified="2024-05-16T19:31:03.306Z" agent="Mozilla/5.0 (Windows NT 10.0; Win64; x64) AppleWebKit/537.36 (KHTML, like Gecko) draw.io/22.0.3 Chrome/114.0.5735.289 Electron/25.8.4 Safari/537.36" etag="rqrmpiMrjx9hF1-pIsBs" version="22.0.3" type="device">
  <diagram id="DZhQD3EP82eeXJ6dpuXq" name="clearGUI">
    <mxGraphModel dx="4239" dy="216" grid="0" gridSize="10" guides="1" tooltips="1" connect="1" arrows="1" fold="1" page="1" pageScale="1" pageWidth="3900" pageHeight="1200" math="0" shadow="0">
      <root>
        <mxCell id="0" />
        <mxCell id="1" parent="0" />
        <mxCell id="Ic_nfCB23JCT6eoH5YxT-1" value="" style="strokeWidth=2;html=1;shape=mxgraph.flowchart.terminator;whiteSpace=wrap;fontSize=10;direction=south;flipH=1;" vertex="1" parent="1">
          <mxGeometry x="-2237" y="12" width="50" height="100" as="geometry" />
        </mxCell>
        <mxCell id="Ic_nfCB23JCT6eoH5YxT-2" value="" style="strokeWidth=2;html=1;shape=mxgraph.flowchart.terminator;whiteSpace=wrap;fontSize=10;direction=south;flipH=1;" vertex="1" parent="1">
          <mxGeometry x="-126" y="611" width="50" height="100" as="geometry" />
        </mxCell>
        <mxCell id="Ic_nfCB23JCT6eoH5YxT-3" value="" style="strokeWidth=2;html=1;shape=mxgraph.flowchart.terminator;whiteSpace=wrap;fontSize=10;direction=south;flipH=1;" vertex="1" parent="1">
          <mxGeometry x="-3783" y="380" width="50" height="100" as="geometry" />
        </mxCell>
        <mxCell id="Ic_nfCB23JCT6eoH5YxT-4" value="" style="strokeWidth=2;html=1;shape=mxgraph.flowchart.terminator;whiteSpace=wrap;fontSize=10;direction=south;flipH=1;" vertex="1" parent="1">
          <mxGeometry x="-2237" y="149" width="50" height="100" as="geometry" />
        </mxCell>
        <mxCell id="Ic_nfCB23JCT6eoH5YxT-5" value="" style="strokeWidth=2;html=1;shape=mxgraph.flowchart.terminator;whiteSpace=wrap;fontSize=10;direction=south;flipH=1;" vertex="1" parent="1">
          <mxGeometry x="-701" y="561" width="50" height="100" as="geometry" />
        </mxCell>
        <mxCell id="Ic_nfCB23JCT6eoH5YxT-6" value="" style="strokeWidth=2;html=1;shape=mxgraph.flowchart.terminator;whiteSpace=wrap;fontSize=10;direction=south;flipH=1;" vertex="1" parent="1">
          <mxGeometry x="-701" y="714" width="50" height="100" as="geometry" />
        </mxCell>
        <mxCell id="Ic_nfCB23JCT6eoH5YxT-7" value="" style="strokeWidth=2;html=1;shape=mxgraph.flowchart.terminator;whiteSpace=wrap;fontSize=10;direction=south;flipH=1;" vertex="1" parent="1">
          <mxGeometry x="-406" y="711" width="50" height="100" as="geometry" />
        </mxCell>
        <mxCell id="Ic_nfCB23JCT6eoH5YxT-8" value="" style="strokeWidth=2;html=1;shape=mxgraph.flowchart.terminator;whiteSpace=wrap;fontSize=10;direction=south;flipH=1;" vertex="1" parent="1">
          <mxGeometry x="-553" y="711" width="50" height="100" as="geometry" />
        </mxCell>
        <mxCell id="Ic_nfCB23JCT6eoH5YxT-9" value="" style="strokeWidth=2;html=1;shape=mxgraph.flowchart.terminator;whiteSpace=wrap;fontSize=10;direction=south;flipH=1;" vertex="1" parent="1">
          <mxGeometry x="-2195" y="552" width="50" height="100" as="geometry" />
        </mxCell>
        <mxCell id="Ic_nfCB23JCT6eoH5YxT-10" value="" style="strokeWidth=2;html=1;shape=mxgraph.flowchart.terminator;whiteSpace=wrap;fontSize=10;direction=south;flipH=1;" vertex="1" parent="1">
          <mxGeometry x="-3259" y="286" width="50" height="100" as="geometry" />
        </mxCell>
        <mxCell id="Ic_nfCB23JCT6eoH5YxT-11" style="edgeStyle=orthogonalEdgeStyle;rounded=0;orthogonalLoop=1;jettySize=auto;html=1;exitX=1;exitY=0.5;exitDx=0;exitDy=0;exitPerimeter=0;endArrow=none;endFill=0;" edge="1" parent="1" source="Ic_nfCB23JCT6eoH5YxT-12">
          <mxGeometry relative="1" as="geometry">
            <mxPoint x="-3407.1666666666665" y="427.08334859212243" as="targetPoint" />
          </mxGeometry>
        </mxCell>
        <mxCell id="Ic_nfCB23JCT6eoH5YxT-12" value="" style="strokeWidth=2;html=1;shape=mxgraph.flowchart.terminator;whiteSpace=wrap;fontSize=10;direction=south;flipH=1;" vertex="1" parent="1">
          <mxGeometry x="-3432" y="284" width="50" height="100" as="geometry" />
        </mxCell>
        <mxCell id="Ic_nfCB23JCT6eoH5YxT-13" value="" style="strokeWidth=2;html=1;shape=mxgraph.flowchart.terminator;whiteSpace=wrap;fontSize=10;direction=south;flipH=1;" vertex="1" parent="1">
          <mxGeometry x="-1361" y="411" width="50" height="100" as="geometry" />
        </mxCell>
        <mxCell id="Ic_nfCB23JCT6eoH5YxT-14" value="" style="strokeWidth=2;html=1;shape=mxgraph.flowchart.terminator;whiteSpace=wrap;fontSize=10;direction=south;flipH=1;" vertex="1" parent="1">
          <mxGeometry x="-1221" y="411" width="50" height="100" as="geometry" />
        </mxCell>
        <mxCell id="Ic_nfCB23JCT6eoH5YxT-15" value="" style="strokeWidth=2;html=1;shape=mxgraph.flowchart.terminator;whiteSpace=wrap;fontSize=10;direction=south;flipH=1;" vertex="1" parent="1">
          <mxGeometry x="-1498" y="411" width="50" height="100" as="geometry" />
        </mxCell>
        <mxCell id="Ic_nfCB23JCT6eoH5YxT-16" value="" style="strokeWidth=2;html=1;shape=mxgraph.flowchart.terminator;whiteSpace=wrap;fontSize=10;direction=south;flipH=1;" vertex="1" parent="1">
          <mxGeometry x="-1054" y="411" width="50" height="100" as="geometry" />
        </mxCell>
        <mxCell id="Ic_nfCB23JCT6eoH5YxT-17" value="" style="strokeWidth=2;html=1;shape=mxgraph.flowchart.terminator;whiteSpace=wrap;fontSize=10;direction=south;flipH=1;" vertex="1" parent="1">
          <mxGeometry x="-921" y="411" width="50" height="100" as="geometry" />
        </mxCell>
        <mxCell id="Ic_nfCB23JCT6eoH5YxT-18" value="" style="strokeWidth=2;html=1;shape=mxgraph.flowchart.terminator;whiteSpace=wrap;fontSize=10;direction=south;flipH=1;" vertex="1" parent="1">
          <mxGeometry x="-787" y="409" width="50" height="100" as="geometry" />
        </mxCell>
        <mxCell id="Ic_nfCB23JCT6eoH5YxT-19" value="" style="strokeWidth=2;html=1;shape=mxgraph.flowchart.terminator;whiteSpace=wrap;fontSize=10;direction=south;flipH=1;" vertex="1" parent="1">
          <mxGeometry x="-1145" y="284" width="50" height="100" as="geometry" />
        </mxCell>
        <mxCell id="Ic_nfCB23JCT6eoH5YxT-20" value="" style="strokeWidth=2;html=1;shape=mxgraph.flowchart.terminator;whiteSpace=wrap;fontSize=10;direction=south;flipH=1;" vertex="1" parent="1">
          <mxGeometry x="-675" y="286" width="50" height="100" as="geometry" />
        </mxCell>
        <mxCell id="Ic_nfCB23JCT6eoH5YxT-21" value="" style="strokeWidth=2;html=1;shape=mxgraph.flowchart.terminator;whiteSpace=wrap;fontSize=10;direction=south;flipH=1;" vertex="1" parent="1">
          <mxGeometry x="-2930" y="294" width="50" height="100" as="geometry" />
        </mxCell>
        <mxCell id="Ic_nfCB23JCT6eoH5YxT-22" value="" style="strokeWidth=2;html=1;shape=mxgraph.flowchart.terminator;whiteSpace=wrap;fontSize=10;direction=south;flipH=1;" vertex="1" parent="1">
          <mxGeometry x="-1674" y="300" width="50" height="100" as="geometry" />
        </mxCell>
        <mxCell id="Ic_nfCB23JCT6eoH5YxT-23" value="" style="strokeWidth=2;html=1;shape=mxgraph.flowchart.terminator;whiteSpace=wrap;fontSize=10;direction=south;flipH=1;" vertex="1" parent="1">
          <mxGeometry x="-3589" y="479" width="50" height="100" as="geometry" />
        </mxCell>
        <mxCell id="Ic_nfCB23JCT6eoH5YxT-24" value="" style="strokeWidth=2;html=1;shape=mxgraph.flowchart.terminator;whiteSpace=wrap;fontSize=10;direction=south;flipH=1;" vertex="1" parent="1">
          <mxGeometry x="-3432" y="427.5" width="50" height="100" as="geometry" />
        </mxCell>
        <mxCell id="Ic_nfCB23JCT6eoH5YxT-25" value="" style="strokeWidth=2;html=1;shape=mxgraph.flowchart.terminator;whiteSpace=wrap;fontSize=10;direction=south;flipH=1;" vertex="1" parent="1">
          <mxGeometry x="-3198" y="414" width="50" height="100" as="geometry" />
        </mxCell>
        <mxCell id="Ic_nfCB23JCT6eoH5YxT-26" value="" style="strokeWidth=2;html=1;shape=mxgraph.flowchart.terminator;whiteSpace=wrap;fontSize=10;direction=south;flipH=1;" vertex="1" parent="1">
          <mxGeometry x="-2930" y="435" width="50" height="100" as="geometry" />
        </mxCell>
        <mxCell id="Ic_nfCB23JCT6eoH5YxT-27" value="" style="strokeWidth=2;html=1;shape=mxgraph.flowchart.terminator;whiteSpace=wrap;fontSize=10;direction=south;flipH=1;" vertex="1" parent="1">
          <mxGeometry x="-3540" y="286" width="50" height="100" as="geometry" />
        </mxCell>
        <mxCell id="Ic_nfCB23JCT6eoH5YxT-130" style="edgeStyle=orthogonalEdgeStyle;rounded=0;orthogonalLoop=1;jettySize=auto;html=1;endArrow=none;endFill=0;" edge="1" parent="1" source="Ic_nfCB23JCT6eoH5YxT-28" target="Ic_nfCB23JCT6eoH5YxT-97">
          <mxGeometry relative="1" as="geometry">
            <Array as="points">
              <mxPoint x="-3013" y="769" />
              <mxPoint x="-3672" y="769" />
            </Array>
          </mxGeometry>
        </mxCell>
        <mxCell id="Ic_nfCB23JCT6eoH5YxT-28" value="" style="strokeWidth=2;html=1;shape=mxgraph.flowchart.terminator;whiteSpace=wrap;fontSize=10;direction=south;flipH=1;" vertex="1" parent="1">
          <mxGeometry x="-3038" y="411" width="50" height="100" as="geometry" />
        </mxCell>
        <mxCell id="Ic_nfCB23JCT6eoH5YxT-29" value="" style="strokeWidth=2;html=1;shape=mxgraph.flowchart.terminator;whiteSpace=wrap;fontSize=10;direction=south;flipH=1;" vertex="1" parent="1">
          <mxGeometry x="-345" y="588" width="50" height="100" as="geometry" />
        </mxCell>
        <mxCell id="Ic_nfCB23JCT6eoH5YxT-30" value="" style="strokeWidth=2;html=1;shape=mxgraph.flowchart.terminator;whiteSpace=wrap;fontSize=10;direction=south;flipH=1;" vertex="1" parent="1">
          <mxGeometry x="-3324" y="400" width="50" height="100" as="geometry" />
        </mxCell>
        <mxCell id="Ic_nfCB23JCT6eoH5YxT-31" value="" style="strokeWidth=2;html=1;shape=mxgraph.flowchart.terminator;whiteSpace=wrap;fontSize=10;direction=south;flipH=1;" vertex="1" parent="1">
          <mxGeometry x="-1674" y="420" width="50" height="100" as="geometry" />
        </mxCell>
        <mxCell id="Ic_nfCB23JCT6eoH5YxT-32" value="" style="strokeWidth=2;html=1;shape=mxgraph.flowchart.terminator;whiteSpace=wrap;fontSize=10;direction=north;flipH=1;" vertex="1" parent="1">
          <mxGeometry x="-1736" y="543" width="50" height="100" as="geometry" />
        </mxCell>
        <mxCell id="Ic_nfCB23JCT6eoH5YxT-33" value="" style="strokeWidth=2;html=1;shape=mxgraph.flowchart.terminator;whiteSpace=wrap;fontSize=10;direction=south;flipH=1;" vertex="1" parent="1">
          <mxGeometry x="-3119" y="561" width="50" height="100" as="geometry" />
        </mxCell>
        <mxCell id="Ic_nfCB23JCT6eoH5YxT-34" value="" style="strokeWidth=2;html=1;shape=mxgraph.flowchart.terminator;whiteSpace=wrap;fontSize=10;direction=south;flipH=1;" vertex="1" parent="1">
          <mxGeometry x="-533" y="285.5" width="50" height="100" as="geometry" />
        </mxCell>
        <mxCell id="Ic_nfCB23JCT6eoH5YxT-35" value="" style="strokeWidth=2;html=1;shape=mxgraph.flowchart.terminator;whiteSpace=wrap;fontSize=10;direction=south;flipH=1;" vertex="1" parent="1">
          <mxGeometry x="-1615" y="693" width="50" height="100" as="geometry" />
        </mxCell>
        <mxCell id="Ic_nfCB23JCT6eoH5YxT-36" value="" style="strokeWidth=2;html=1;shape=mxgraph.flowchart.terminator;whiteSpace=wrap;fontSize=10;direction=south;flipH=1;" vertex="1" parent="1">
          <mxGeometry x="-2703" y="411" width="50" height="100" as="geometry" />
        </mxCell>
        <mxCell id="Ic_nfCB23JCT6eoH5YxT-37" value="" style="strokeWidth=2;html=1;shape=mxgraph.flowchart.terminator;whiteSpace=wrap;fontSize=10;direction=south;flipH=1;" vertex="1" parent="1">
          <mxGeometry x="-2598" y="414" width="50" height="100" as="geometry" />
        </mxCell>
        <mxCell id="Ic_nfCB23JCT6eoH5YxT-38" value="" style="strokeWidth=2;html=1;shape=mxgraph.flowchart.terminator;whiteSpace=wrap;fontSize=10;direction=south;flipH=1;" vertex="1" parent="1">
          <mxGeometry x="-2488" y="409" width="50" height="100" as="geometry" />
        </mxCell>
        <mxCell id="Ic_nfCB23JCT6eoH5YxT-39" value="" style="strokeWidth=2;html=1;shape=mxgraph.flowchart.terminator;whiteSpace=wrap;fontSize=10;direction=south;flipH=1;" vertex="1" parent="1">
          <mxGeometry x="-2374" y="409" width="50" height="100" as="geometry" />
        </mxCell>
        <mxCell id="Ic_nfCB23JCT6eoH5YxT-40" value="" style="strokeWidth=2;html=1;shape=mxgraph.flowchart.terminator;whiteSpace=wrap;fontSize=10;direction=south;flipH=1;" vertex="1" parent="1">
          <mxGeometry x="-2258" y="409" width="50" height="100" as="geometry" />
        </mxCell>
        <mxCell id="Ic_nfCB23JCT6eoH5YxT-41" value="" style="strokeWidth=2;html=1;shape=mxgraph.flowchart.terminator;whiteSpace=wrap;fontSize=10;direction=south;flipH=1;" vertex="1" parent="1">
          <mxGeometry x="-2132" y="409" width="50" height="100" as="geometry" />
        </mxCell>
        <mxCell id="Ic_nfCB23JCT6eoH5YxT-42" value="" style="strokeWidth=2;html=1;shape=mxgraph.flowchart.terminator;whiteSpace=wrap;fontSize=10;direction=south;flipH=1;" vertex="1" parent="1">
          <mxGeometry x="-1806" y="420" width="50" height="100" as="geometry" />
        </mxCell>
        <mxCell id="Ic_nfCB23JCT6eoH5YxT-43" value="" style="strokeWidth=2;html=1;shape=mxgraph.flowchart.terminator;whiteSpace=wrap;fontSize=10;direction=south;flipH=1;" vertex="1" parent="1">
          <mxGeometry x="-2019" y="530" width="50" height="100" as="geometry" />
        </mxCell>
        <mxCell id="Ic_nfCB23JCT6eoH5YxT-44" value="" style="strokeWidth=2;html=1;shape=mxgraph.flowchart.terminator;whiteSpace=wrap;fontSize=10;direction=south;flipH=1;" vertex="1" parent="1">
          <mxGeometry x="-2019" y="406" width="50" height="100" as="geometry" />
        </mxCell>
        <mxCell id="Ic_nfCB23JCT6eoH5YxT-45" value="" style="strokeWidth=2;html=1;shape=mxgraph.flowchart.terminator;whiteSpace=wrap;fontSize=10;direction=south;flipH=1;" vertex="1" parent="1">
          <mxGeometry x="-2817" y="394" width="50" height="100" as="geometry" />
        </mxCell>
        <mxCell id="Ic_nfCB23JCT6eoH5YxT-46" value="" style="strokeWidth=2;html=1;shape=mxgraph.flowchart.terminator;whiteSpace=wrap;fontSize=10;direction=south;flipH=1;" vertex="1" parent="1">
          <mxGeometry x="-2703" y="286" width="50" height="100" as="geometry" />
        </mxCell>
        <mxCell id="Ic_nfCB23JCT6eoH5YxT-47" value="" style="strokeWidth=2;html=1;shape=mxgraph.flowchart.terminator;whiteSpace=wrap;fontSize=10;direction=south;flipH=1;" vertex="1" parent="1">
          <mxGeometry x="-1885" y="280.5" width="50" height="100" as="geometry" />
        </mxCell>
        <mxCell id="Ic_nfCB23JCT6eoH5YxT-48" value="" style="strokeWidth=2;html=1;shape=mxgraph.flowchart.terminator;whiteSpace=wrap;fontSize=10;direction=south;flipH=1;" vertex="1" parent="1">
          <mxGeometry x="-459" y="443" width="50" height="100" as="geometry" />
        </mxCell>
        <mxCell id="Ic_nfCB23JCT6eoH5YxT-49" value="" style="strokeWidth=2;html=1;shape=mxgraph.flowchart.terminator;whiteSpace=wrap;fontSize=10;direction=south;flipH=1;" vertex="1" parent="1">
          <mxGeometry x="-675" y="411" width="50" height="100" as="geometry" />
        </mxCell>
        <mxCell id="Ic_nfCB23JCT6eoH5YxT-50" style="edgeStyle=orthogonalEdgeStyle;rounded=0;orthogonalLoop=1;jettySize=auto;html=1;entryX=1;entryY=0.5;entryDx=0;entryDy=0;entryPerimeter=0;exitX=0;exitY=0.5;exitDx=0;exitDy=0;exitPerimeter=0;endArrow=none;endFill=0;" edge="1" parent="1" source="Ic_nfCB23JCT6eoH5YxT-4" target="Ic_nfCB23JCT6eoH5YxT-1">
          <mxGeometry relative="1" as="geometry">
            <Array as="points" />
            <mxPoint x="-2167.142857142857" y="143" as="targetPoint" />
          </mxGeometry>
        </mxCell>
        <mxCell id="Ic_nfCB23JCT6eoH5YxT-51" style="edgeStyle=orthogonalEdgeStyle;rounded=0;orthogonalLoop=1;jettySize=auto;html=1;exitX=0;exitY=0.5;exitDx=0;exitDy=0;exitPerimeter=0;endArrow=none;endFill=0;" edge="1" parent="1" source="Ic_nfCB23JCT6eoH5YxT-3" target="Ic_nfCB23JCT6eoH5YxT-1">
          <mxGeometry relative="1" as="geometry">
            <Array as="points">
              <mxPoint x="-3758" y="129" />
              <mxPoint x="-2212" y="129" />
            </Array>
          </mxGeometry>
        </mxCell>
        <mxCell id="Ic_nfCB23JCT6eoH5YxT-52" style="edgeStyle=orthogonalEdgeStyle;rounded=0;orthogonalLoop=1;jettySize=auto;html=1;exitX=0;exitY=0.5;exitDx=0;exitDy=0;exitPerimeter=0;endArrow=none;endFill=0;" edge="1" parent="1" source="Ic_nfCB23JCT6eoH5YxT-2" target="Ic_nfCB23JCT6eoH5YxT-1">
          <mxGeometry relative="1" as="geometry">
            <Array as="points">
              <mxPoint x="-101" y="129" />
              <mxPoint x="-2212" y="129" />
            </Array>
          </mxGeometry>
        </mxCell>
        <mxCell id="Ic_nfCB23JCT6eoH5YxT-53" style="edgeStyle=orthogonalEdgeStyle;rounded=0;orthogonalLoop=1;jettySize=auto;html=1;exitX=0;exitY=0.5;exitDx=0;exitDy=0;exitPerimeter=0;endArrow=none;endFill=0;" edge="1" parent="1" source="Ic_nfCB23JCT6eoH5YxT-12" target="Ic_nfCB23JCT6eoH5YxT-4">
          <mxGeometry relative="1" as="geometry">
            <Array as="points">
              <mxPoint x="-3407" y="265" />
              <mxPoint x="-2212" y="265" />
            </Array>
          </mxGeometry>
        </mxCell>
        <mxCell id="Ic_nfCB23JCT6eoH5YxT-54" style="edgeStyle=orthogonalEdgeStyle;rounded=0;orthogonalLoop=1;jettySize=auto;html=1;exitX=0;exitY=0.5;exitDx=0;exitDy=0;exitPerimeter=0;endArrow=none;endFill=0;" edge="1" parent="1" source="Ic_nfCB23JCT6eoH5YxT-20" target="Ic_nfCB23JCT6eoH5YxT-4">
          <mxGeometry relative="1" as="geometry">
            <Array as="points">
              <mxPoint x="-650" y="265" />
              <mxPoint x="-2212" y="265" />
            </Array>
          </mxGeometry>
        </mxCell>
        <mxCell id="Ic_nfCB23JCT6eoH5YxT-55" style="edgeStyle=orthogonalEdgeStyle;rounded=0;orthogonalLoop=1;jettySize=auto;html=1;endArrow=none;endFill=0;" edge="1" parent="1" source="Ic_nfCB23JCT6eoH5YxT-19" target="Ic_nfCB23JCT6eoH5YxT-4">
          <mxGeometry relative="1" as="geometry">
            <Array as="points">
              <mxPoint x="-1120" y="265" />
              <mxPoint x="-2212" y="265" />
            </Array>
          </mxGeometry>
        </mxCell>
        <mxCell id="Ic_nfCB23JCT6eoH5YxT-56" style="edgeStyle=orthogonalEdgeStyle;rounded=0;orthogonalLoop=1;jettySize=auto;html=1;endArrow=none;endFill=0;" edge="1" parent="1" source="Ic_nfCB23JCT6eoH5YxT-46" target="Ic_nfCB23JCT6eoH5YxT-4">
          <mxGeometry relative="1" as="geometry">
            <Array as="points">
              <mxPoint x="-2678" y="265" />
              <mxPoint x="-2212" y="265" />
            </Array>
          </mxGeometry>
        </mxCell>
        <mxCell id="Ic_nfCB23JCT6eoH5YxT-57" style="edgeStyle=orthogonalEdgeStyle;rounded=0;orthogonalLoop=1;jettySize=auto;html=1;entryX=1;entryY=0.5;entryDx=0;entryDy=0;entryPerimeter=0;endArrow=none;endFill=0;" edge="1" parent="1" source="Ic_nfCB23JCT6eoH5YxT-47" target="Ic_nfCB23JCT6eoH5YxT-4">
          <mxGeometry relative="1" as="geometry">
            <Array as="points">
              <mxPoint x="-1860" y="265" />
              <mxPoint x="-2212" y="265" />
            </Array>
          </mxGeometry>
        </mxCell>
        <mxCell id="Ic_nfCB23JCT6eoH5YxT-58" style="edgeStyle=orthogonalEdgeStyle;rounded=0;orthogonalLoop=1;jettySize=auto;html=1;entryX=1;entryY=0.5;entryDx=0;entryDy=0;entryPerimeter=0;endArrow=none;endFill=0;" edge="1" parent="1" source="Ic_nfCB23JCT6eoH5YxT-22" target="Ic_nfCB23JCT6eoH5YxT-4">
          <mxGeometry relative="1" as="geometry">
            <Array as="points">
              <mxPoint x="-1649" y="265" />
              <mxPoint x="-2212" y="265" />
            </Array>
          </mxGeometry>
        </mxCell>
        <mxCell id="Ic_nfCB23JCT6eoH5YxT-59" style="edgeStyle=orthogonalEdgeStyle;rounded=0;orthogonalLoop=1;jettySize=auto;html=1;endArrow=none;endFill=0;" edge="1" parent="1" source="Ic_nfCB23JCT6eoH5YxT-15" target="Ic_nfCB23JCT6eoH5YxT-19">
          <mxGeometry relative="1" as="geometry">
            <Array as="points">
              <mxPoint x="-1473" y="388" />
              <mxPoint x="-1120" y="388" />
            </Array>
          </mxGeometry>
        </mxCell>
        <mxCell id="Ic_nfCB23JCT6eoH5YxT-60" style="edgeStyle=orthogonalEdgeStyle;rounded=0;orthogonalLoop=1;jettySize=auto;html=1;endArrow=none;endFill=0;" edge="1" parent="1" source="Ic_nfCB23JCT6eoH5YxT-13" target="Ic_nfCB23JCT6eoH5YxT-19">
          <mxGeometry relative="1" as="geometry">
            <Array as="points">
              <mxPoint x="-1336" y="388" />
              <mxPoint x="-1120" y="388" />
            </Array>
          </mxGeometry>
        </mxCell>
        <mxCell id="Ic_nfCB23JCT6eoH5YxT-61" style="edgeStyle=orthogonalEdgeStyle;rounded=0;orthogonalLoop=1;jettySize=auto;html=1;endArrow=none;endFill=0;" edge="1" parent="1" source="Ic_nfCB23JCT6eoH5YxT-14" target="Ic_nfCB23JCT6eoH5YxT-19">
          <mxGeometry relative="1" as="geometry">
            <Array as="points">
              <mxPoint x="-1196" y="388" />
              <mxPoint x="-1120" y="388" />
            </Array>
          </mxGeometry>
        </mxCell>
        <mxCell id="Ic_nfCB23JCT6eoH5YxT-62" style="edgeStyle=orthogonalEdgeStyle;rounded=0;orthogonalLoop=1;jettySize=auto;html=1;endArrow=none;endFill=0;" edge="1" parent="1" source="Ic_nfCB23JCT6eoH5YxT-16" target="Ic_nfCB23JCT6eoH5YxT-19">
          <mxGeometry relative="1" as="geometry">
            <Array as="points">
              <mxPoint x="-1029" y="388" />
              <mxPoint x="-1120" y="388" />
            </Array>
          </mxGeometry>
        </mxCell>
        <mxCell id="Ic_nfCB23JCT6eoH5YxT-63" style="edgeStyle=orthogonalEdgeStyle;rounded=0;orthogonalLoop=1;jettySize=auto;html=1;endArrow=none;endFill=0;" edge="1" parent="1" source="Ic_nfCB23JCT6eoH5YxT-17" target="Ic_nfCB23JCT6eoH5YxT-19">
          <mxGeometry relative="1" as="geometry">
            <Array as="points">
              <mxPoint x="-896" y="388" />
              <mxPoint x="-1120" y="388" />
            </Array>
          </mxGeometry>
        </mxCell>
        <mxCell id="Ic_nfCB23JCT6eoH5YxT-64" style="edgeStyle=orthogonalEdgeStyle;rounded=0;orthogonalLoop=1;jettySize=auto;html=1;endArrow=none;endFill=0;" edge="1" parent="1" source="Ic_nfCB23JCT6eoH5YxT-18" target="Ic_nfCB23JCT6eoH5YxT-19">
          <mxGeometry relative="1" as="geometry">
            <Array as="points">
              <mxPoint x="-762" y="388" />
              <mxPoint x="-1120" y="388" />
            </Array>
          </mxGeometry>
        </mxCell>
        <mxCell id="Ic_nfCB23JCT6eoH5YxT-65" style="edgeStyle=orthogonalEdgeStyle;rounded=0;orthogonalLoop=1;jettySize=auto;html=1;exitX=0;exitY=0.5;exitDx=0;exitDy=0;exitPerimeter=0;endArrow=none;endFill=0;" edge="1" parent="1" source="Ic_nfCB23JCT6eoH5YxT-10" target="Ic_nfCB23JCT6eoH5YxT-4">
          <mxGeometry relative="1" as="geometry">
            <Array as="points">
              <mxPoint x="-3234" y="265" />
              <mxPoint x="-2212" y="265" />
            </Array>
          </mxGeometry>
        </mxCell>
        <mxCell id="Ic_nfCB23JCT6eoH5YxT-66" style="edgeStyle=orthogonalEdgeStyle;rounded=0;orthogonalLoop=1;jettySize=auto;html=1;exitX=0;exitY=0.5;exitDx=0;exitDy=0;exitPerimeter=0;endArrow=none;endFill=0;" edge="1" parent="1" source="Ic_nfCB23JCT6eoH5YxT-21" target="Ic_nfCB23JCT6eoH5YxT-4">
          <mxGeometry relative="1" as="geometry">
            <Array as="points">
              <mxPoint x="-2905" y="265" />
              <mxPoint x="-2212" y="265" />
            </Array>
          </mxGeometry>
        </mxCell>
        <mxCell id="Ic_nfCB23JCT6eoH5YxT-67" style="edgeStyle=orthogonalEdgeStyle;rounded=0;orthogonalLoop=1;jettySize=auto;html=1;exitX=0;exitY=0.5;exitDx=0;exitDy=0;exitPerimeter=0;endArrow=none;endFill=0;" edge="1" parent="1" source="Ic_nfCB23JCT6eoH5YxT-27" target="Ic_nfCB23JCT6eoH5YxT-4">
          <mxGeometry relative="1" as="geometry">
            <Array as="points">
              <mxPoint x="-3515" y="265" />
              <mxPoint x="-2212" y="265" />
            </Array>
          </mxGeometry>
        </mxCell>
        <mxCell id="Ic_nfCB23JCT6eoH5YxT-68" style="edgeStyle=orthogonalEdgeStyle;rounded=0;orthogonalLoop=1;jettySize=auto;html=1;exitX=0;exitY=0.5;exitDx=0;exitDy=0;exitPerimeter=0;endArrow=none;endFill=0;" edge="1" parent="1" source="Ic_nfCB23JCT6eoH5YxT-30" target="Ic_nfCB23JCT6eoH5YxT-4">
          <mxGeometry relative="1" as="geometry">
            <Array as="points">
              <mxPoint x="-3298" y="265" />
              <mxPoint x="-2212" y="265" />
            </Array>
          </mxGeometry>
        </mxCell>
        <mxCell id="Ic_nfCB23JCT6eoH5YxT-69" style="edgeStyle=orthogonalEdgeStyle;rounded=0;orthogonalLoop=1;jettySize=auto;html=1;exitX=0;exitY=0.5;exitDx=0;exitDy=0;exitPerimeter=0;endArrow=none;endFill=0;" edge="1" parent="1" source="Ic_nfCB23JCT6eoH5YxT-26" target="Ic_nfCB23JCT6eoH5YxT-21">
          <mxGeometry relative="1" as="geometry" />
        </mxCell>
        <mxCell id="Ic_nfCB23JCT6eoH5YxT-70" style="edgeStyle=orthogonalEdgeStyle;rounded=0;orthogonalLoop=1;jettySize=auto;html=1;exitX=0;exitY=0.5;exitDx=0;exitDy=0;exitPerimeter=0;endArrow=none;endFill=0;" edge="1" parent="1" source="Ic_nfCB23JCT6eoH5YxT-25" target="Ic_nfCB23JCT6eoH5YxT-10">
          <mxGeometry relative="1" as="geometry">
            <Array as="points">
              <mxPoint x="-3172" y="414" />
              <mxPoint x="-3172" y="398" />
              <mxPoint x="-3234" y="398" />
            </Array>
          </mxGeometry>
        </mxCell>
        <mxCell id="Ic_nfCB23JCT6eoH5YxT-71" style="edgeStyle=orthogonalEdgeStyle;rounded=0;orthogonalLoop=1;jettySize=auto;html=1;exitX=0;exitY=0.5;exitDx=0;exitDy=0;exitPerimeter=0;endArrow=none;endFill=0;" edge="1" parent="1" source="Ic_nfCB23JCT6eoH5YxT-28" target="Ic_nfCB23JCT6eoH5YxT-10">
          <mxGeometry relative="1" as="geometry">
            <Array as="points">
              <mxPoint x="-3014" y="398" />
              <mxPoint x="-3234" y="398" />
            </Array>
          </mxGeometry>
        </mxCell>
        <mxCell id="Ic_nfCB23JCT6eoH5YxT-72" style="edgeStyle=orthogonalEdgeStyle;rounded=0;orthogonalLoop=1;jettySize=auto;html=1;exitX=0;exitY=0.5;exitDx=0;exitDy=0;exitPerimeter=0;endArrow=none;endFill=0;" edge="1" parent="1" source="Ic_nfCB23JCT6eoH5YxT-45" target="Ic_nfCB23JCT6eoH5YxT-4">
          <mxGeometry relative="1" as="geometry">
            <Array as="points">
              <mxPoint x="-2792" y="265" />
              <mxPoint x="-2212" y="265" />
            </Array>
          </mxGeometry>
        </mxCell>
        <mxCell id="Ic_nfCB23JCT6eoH5YxT-73" style="edgeStyle=orthogonalEdgeStyle;rounded=0;orthogonalLoop=1;jettySize=auto;html=1;exitX=0;exitY=0.5;exitDx=0;exitDy=0;exitPerimeter=0;endArrow=none;endFill=0;" edge="1" parent="1" source="Ic_nfCB23JCT6eoH5YxT-36" target="Ic_nfCB23JCT6eoH5YxT-46">
          <mxGeometry relative="1" as="geometry" />
        </mxCell>
        <mxCell id="Ic_nfCB23JCT6eoH5YxT-74" style="edgeStyle=orthogonalEdgeStyle;rounded=0;orthogonalLoop=1;jettySize=auto;html=1;exitX=0;exitY=0.5;exitDx=0;exitDy=0;exitPerimeter=0;endArrow=none;endFill=0;entryX=1;entryY=0.5;entryDx=0;entryDy=0;entryPerimeter=0;" edge="1" parent="1" source="Ic_nfCB23JCT6eoH5YxT-37" target="Ic_nfCB23JCT6eoH5YxT-46">
          <mxGeometry relative="1" as="geometry">
            <Array as="points">
              <mxPoint x="-2573" y="395" />
              <mxPoint x="-2678" y="395" />
            </Array>
          </mxGeometry>
        </mxCell>
        <mxCell id="Ic_nfCB23JCT6eoH5YxT-75" style="edgeStyle=orthogonalEdgeStyle;rounded=0;orthogonalLoop=1;jettySize=auto;html=1;exitX=0;exitY=0.5;exitDx=0;exitDy=0;exitPerimeter=0;endArrow=none;endFill=0;entryX=1;entryY=0.5;entryDx=0;entryDy=0;entryPerimeter=0;" edge="1" parent="1" source="Ic_nfCB23JCT6eoH5YxT-38" target="Ic_nfCB23JCT6eoH5YxT-46">
          <mxGeometry relative="1" as="geometry">
            <Array as="points">
              <mxPoint x="-2463" y="395" />
              <mxPoint x="-2678" y="395" />
            </Array>
          </mxGeometry>
        </mxCell>
        <mxCell id="Ic_nfCB23JCT6eoH5YxT-76" style="edgeStyle=orthogonalEdgeStyle;rounded=0;orthogonalLoop=1;jettySize=auto;html=1;exitX=0;exitY=0.5;exitDx=0;exitDy=0;exitPerimeter=0;endArrow=none;endFill=0;entryX=1;entryY=0.5;entryDx=0;entryDy=0;entryPerimeter=0;" edge="1" parent="1" source="Ic_nfCB23JCT6eoH5YxT-39" target="Ic_nfCB23JCT6eoH5YxT-46">
          <mxGeometry relative="1" as="geometry">
            <Array as="points">
              <mxPoint x="-2349" y="395" />
              <mxPoint x="-2678" y="395" />
            </Array>
          </mxGeometry>
        </mxCell>
        <mxCell id="Ic_nfCB23JCT6eoH5YxT-77" style="edgeStyle=orthogonalEdgeStyle;rounded=0;orthogonalLoop=1;jettySize=auto;html=1;exitX=0;exitY=0.5;exitDx=0;exitDy=0;exitPerimeter=0;endArrow=none;endFill=0;entryX=1;entryY=0.5;entryDx=0;entryDy=0;entryPerimeter=0;" edge="1" parent="1" source="Ic_nfCB23JCT6eoH5YxT-40" target="Ic_nfCB23JCT6eoH5YxT-46">
          <mxGeometry relative="1" as="geometry">
            <Array as="points">
              <mxPoint x="-2233" y="395" />
              <mxPoint x="-2678" y="395" />
            </Array>
          </mxGeometry>
        </mxCell>
        <mxCell id="Ic_nfCB23JCT6eoH5YxT-78" style="edgeStyle=orthogonalEdgeStyle;rounded=0;orthogonalLoop=1;jettySize=auto;html=1;endArrow=none;endFill=0;entryX=1;entryY=0.5;entryDx=0;entryDy=0;entryPerimeter=0;" edge="1" parent="1" source="Ic_nfCB23JCT6eoH5YxT-41" target="Ic_nfCB23JCT6eoH5YxT-46">
          <mxGeometry relative="1" as="geometry">
            <Array as="points">
              <mxPoint x="-2107" y="395" />
              <mxPoint x="-2678" y="395" />
            </Array>
          </mxGeometry>
        </mxCell>
        <mxCell id="Ic_nfCB23JCT6eoH5YxT-80" style="edgeStyle=orthogonalEdgeStyle;rounded=0;orthogonalLoop=1;jettySize=auto;html=1;exitX=0;exitY=0.5;exitDx=0;exitDy=0;exitPerimeter=0;endArrow=none;endFill=0;" edge="1" parent="1" source="Ic_nfCB23JCT6eoH5YxT-48" target="Ic_nfCB23JCT6eoH5YxT-34">
          <mxGeometry relative="1" as="geometry">
            <Array as="points">
              <mxPoint x="-433" y="443" />
              <mxPoint x="-433" y="434" />
              <mxPoint x="-508" y="434" />
            </Array>
            <mxPoint x="-591.0000000000018" y="472.5" as="sourcePoint" />
          </mxGeometry>
        </mxCell>
        <mxCell id="Ic_nfCB23JCT6eoH5YxT-82" style="edgeStyle=orthogonalEdgeStyle;rounded=0;orthogonalLoop=1;jettySize=auto;html=1;exitX=0;exitY=0.5;exitDx=0;exitDy=0;exitPerimeter=0;endArrow=none;endFill=0;" edge="1" parent="1" source="Ic_nfCB23JCT6eoH5YxT-34" target="Ic_nfCB23JCT6eoH5YxT-4">
          <mxGeometry relative="1" as="geometry">
            <Array as="points">
              <mxPoint x="-508" y="265" />
              <mxPoint x="-2212" y="265" />
            </Array>
          </mxGeometry>
        </mxCell>
        <mxCell id="Ic_nfCB23JCT6eoH5YxT-85" style="edgeStyle=orthogonalEdgeStyle;rounded=0;orthogonalLoop=1;jettySize=auto;html=1;exitX=0;exitY=0.5;exitDx=0;exitDy=0;exitPerimeter=0;endArrow=none;endFill=0;" edge="1" parent="1" source="Ic_nfCB23JCT6eoH5YxT-42" target="Ic_nfCB23JCT6eoH5YxT-47">
          <mxGeometry relative="1" as="geometry">
            <Array as="points">
              <mxPoint x="-1780" y="391" />
              <mxPoint x="-1860" y="391" />
            </Array>
          </mxGeometry>
        </mxCell>
        <mxCell id="Ic_nfCB23JCT6eoH5YxT-86" value="" style="strokeWidth=2;html=1;shape=mxgraph.flowchart.terminator;whiteSpace=wrap;fontSize=10;direction=south;flipH=1;" vertex="1" parent="1">
          <mxGeometry x="-2019" y="282" width="50" height="100" as="geometry" />
        </mxCell>
        <mxCell id="Ic_nfCB23JCT6eoH5YxT-87" style="edgeStyle=orthogonalEdgeStyle;rounded=0;orthogonalLoop=1;jettySize=auto;html=1;endArrow=none;endFill=0;" edge="1" parent="1" source="Ic_nfCB23JCT6eoH5YxT-86" target="Ic_nfCB23JCT6eoH5YxT-4">
          <mxGeometry relative="1" as="geometry">
            <Array as="points">
              <mxPoint x="-1994" y="265" />
              <mxPoint x="-2212" y="265" />
            </Array>
          </mxGeometry>
        </mxCell>
        <mxCell id="Ic_nfCB23JCT6eoH5YxT-88" style="edgeStyle=orthogonalEdgeStyle;rounded=0;orthogonalLoop=1;jettySize=auto;html=1;exitX=0;exitY=0.5;exitDx=0;exitDy=0;exitPerimeter=0;endArrow=none;endFill=0;" edge="1" parent="1" source="Ic_nfCB23JCT6eoH5YxT-35" target="Ic_nfCB23JCT6eoH5YxT-42">
          <mxGeometry relative="1" as="geometry">
            <Array as="points">
              <mxPoint x="-1590" y="666" />
              <mxPoint x="-1780" y="666" />
            </Array>
          </mxGeometry>
        </mxCell>
        <mxCell id="Ic_nfCB23JCT6eoH5YxT-89" style="edgeStyle=orthogonalEdgeStyle;rounded=0;orthogonalLoop=1;jettySize=auto;html=1;endArrow=none;endFill=0;exitX=0;exitY=0.5;exitDx=0;exitDy=0;exitPerimeter=0;" edge="1" parent="1" source="Ic_nfCB23JCT6eoH5YxT-35" target="Ic_nfCB23JCT6eoH5YxT-19">
          <mxGeometry relative="1" as="geometry">
            <Array as="points">
              <mxPoint x="-1590" y="388" />
              <mxPoint x="-1120" y="388" />
            </Array>
          </mxGeometry>
        </mxCell>
        <mxCell id="Ic_nfCB23JCT6eoH5YxT-90" style="edgeStyle=orthogonalEdgeStyle;rounded=0;orthogonalLoop=1;jettySize=auto;html=1;exitX=0;exitY=0.5;exitDx=0;exitDy=0;exitPerimeter=0;endArrow=none;endFill=0;" edge="1" parent="1" source="Ic_nfCB23JCT6eoH5YxT-44" target="Ic_nfCB23JCT6eoH5YxT-86">
          <mxGeometry relative="1" as="geometry" />
        </mxCell>
        <mxCell id="Ic_nfCB23JCT6eoH5YxT-91" style="edgeStyle=orthogonalEdgeStyle;rounded=0;orthogonalLoop=1;jettySize=auto;html=1;endArrow=none;endFill=0;" edge="1" parent="1" source="Ic_nfCB23JCT6eoH5YxT-43" target="Ic_nfCB23JCT6eoH5YxT-44">
          <mxGeometry relative="1" as="geometry" />
        </mxCell>
        <mxCell id="Ic_nfCB23JCT6eoH5YxT-92" style="edgeStyle=orthogonalEdgeStyle;rounded=0;orthogonalLoop=1;jettySize=auto;html=1;endArrow=none;endFill=0;" edge="1" parent="1" source="Ic_nfCB23JCT6eoH5YxT-5" target="Ic_nfCB23JCT6eoH5YxT-18">
          <mxGeometry relative="1" as="geometry">
            <Array as="points">
              <mxPoint x="-676" y="529" />
              <mxPoint x="-762" y="529" />
            </Array>
          </mxGeometry>
        </mxCell>
        <mxCell id="Ic_nfCB23JCT6eoH5YxT-93" style="edgeStyle=orthogonalEdgeStyle;rounded=0;orthogonalLoop=1;jettySize=auto;html=1;endArrow=none;endFill=0;" edge="1" parent="1" source="Ic_nfCB23JCT6eoH5YxT-5" target="Ic_nfCB23JCT6eoH5YxT-48">
          <mxGeometry relative="1" as="geometry">
            <Array as="points">
              <mxPoint x="-676" y="552" />
              <mxPoint x="-434" y="552" />
            </Array>
          </mxGeometry>
        </mxCell>
        <mxCell id="Ic_nfCB23JCT6eoH5YxT-94" style="edgeStyle=orthogonalEdgeStyle;rounded=0;orthogonalLoop=1;jettySize=auto;html=1;endArrow=none;endFill=0;" edge="1" parent="1" source="Ic_nfCB23JCT6eoH5YxT-6" target="Ic_nfCB23JCT6eoH5YxT-5">
          <mxGeometry relative="1" as="geometry" />
        </mxCell>
        <mxCell id="Ic_nfCB23JCT6eoH5YxT-95" style="edgeStyle=orthogonalEdgeStyle;rounded=0;orthogonalLoop=1;jettySize=auto;html=1;endArrow=none;endFill=0;" edge="1" parent="1" source="Ic_nfCB23JCT6eoH5YxT-8" target="Ic_nfCB23JCT6eoH5YxT-5">
          <mxGeometry relative="1" as="geometry">
            <Array as="points">
              <mxPoint x="-529" y="674" />
              <mxPoint x="-676" y="674" />
            </Array>
          </mxGeometry>
        </mxCell>
        <mxCell id="Ic_nfCB23JCT6eoH5YxT-96" style="edgeStyle=orthogonalEdgeStyle;rounded=0;orthogonalLoop=1;jettySize=auto;html=1;endArrow=none;endFill=0;" edge="1" parent="1" source="Ic_nfCB23JCT6eoH5YxT-7" target="Ic_nfCB23JCT6eoH5YxT-5">
          <mxGeometry relative="1" as="geometry">
            <Array as="points">
              <mxPoint x="-382" y="674" />
              <mxPoint x="-676" y="674" />
            </Array>
          </mxGeometry>
        </mxCell>
        <mxCell id="Ic_nfCB23JCT6eoH5YxT-97" value="" style="strokeWidth=2;html=1;shape=mxgraph.flowchart.terminator;whiteSpace=wrap;fontSize=10;direction=south;flipH=1;" vertex="1" parent="1">
          <mxGeometry x="-3697" y="782" width="50" height="100" as="geometry" />
        </mxCell>
        <mxCell id="Ic_nfCB23JCT6eoH5YxT-98" style="edgeStyle=orthogonalEdgeStyle;rounded=0;orthogonalLoop=1;jettySize=auto;html=1;endArrow=none;endFill=0;" edge="1" parent="1" source="Ic_nfCB23JCT6eoH5YxT-97">
          <mxGeometry relative="1" as="geometry">
            <mxPoint x="-3672" y="782" as="targetPoint" />
          </mxGeometry>
        </mxCell>
        <mxCell id="Ic_nfCB23JCT6eoH5YxT-99" value="" style="strokeWidth=2;html=1;shape=mxgraph.flowchart.terminator;whiteSpace=wrap;fontSize=10;direction=south;flipH=1;" vertex="1" parent="1">
          <mxGeometry x="-3697" y="661" width="50" height="100" as="geometry" />
        </mxCell>
        <mxCell id="Ic_nfCB23JCT6eoH5YxT-100" value="" style="strokeWidth=2;html=1;shape=mxgraph.flowchart.terminator;whiteSpace=wrap;fontSize=10;direction=south;flipH=1;" vertex="1" parent="1">
          <mxGeometry x="-236" y="1017" width="50" height="100" as="geometry" />
        </mxCell>
        <mxCell id="Ic_nfCB23JCT6eoH5YxT-101" style="edgeStyle=orthogonalEdgeStyle;rounded=0;orthogonalLoop=1;jettySize=auto;html=1;endArrow=none;endFill=0;" edge="1" parent="1" source="Ic_nfCB23JCT6eoH5YxT-100" target="Ic_nfCB23JCT6eoH5YxT-102">
          <mxGeometry relative="1" as="geometry" />
        </mxCell>
        <mxCell id="Ic_nfCB23JCT6eoH5YxT-102" value="" style="strokeWidth=2;html=1;shape=mxgraph.flowchart.terminator;whiteSpace=wrap;fontSize=10;direction=south;flipH=1;" vertex="1" parent="1">
          <mxGeometry x="-236" y="866" width="50" height="100" as="geometry" />
        </mxCell>
        <mxCell id="Ic_nfCB23JCT6eoH5YxT-103" style="edgeStyle=orthogonalEdgeStyle;rounded=0;orthogonalLoop=1;jettySize=auto;html=1;endArrow=none;endFill=0;" edge="1" parent="1" source="Ic_nfCB23JCT6eoH5YxT-102" target="Ic_nfCB23JCT6eoH5YxT-4">
          <mxGeometry relative="1" as="geometry">
            <Array as="points">
              <mxPoint x="-211" y="265" />
              <mxPoint x="-2212" y="265" />
            </Array>
          </mxGeometry>
        </mxCell>
        <mxCell id="Ic_nfCB23JCT6eoH5YxT-104" style="edgeStyle=orthogonalEdgeStyle;rounded=0;orthogonalLoop=1;jettySize=auto;html=1;exitX=0;exitY=0.5;exitDx=0;exitDy=0;exitPerimeter=0;endArrow=none;endFill=0;" edge="1" parent="1" source="Ic_nfCB23JCT6eoH5YxT-99" target="Ic_nfCB23JCT6eoH5YxT-4">
          <mxGeometry relative="1" as="geometry">
            <Array as="points">
              <mxPoint x="-3672" y="265" />
              <mxPoint x="-2212" y="265" />
            </Array>
            <mxPoint x="-3931" y="735" as="sourcePoint" />
          </mxGeometry>
        </mxCell>
        <mxCell id="Ic_nfCB23JCT6eoH5YxT-105" style="edgeStyle=orthogonalEdgeStyle;rounded=0;orthogonalLoop=1;jettySize=auto;html=1;exitX=0;exitY=0.5;exitDx=0;exitDy=0;exitPerimeter=0;endArrow=none;endFill=0;" edge="1" parent="1" source="Ic_nfCB23JCT6eoH5YxT-99" target="Ic_nfCB23JCT6eoH5YxT-10">
          <mxGeometry relative="1" as="geometry">
            <Array as="points">
              <mxPoint x="-3672" y="640" />
              <mxPoint x="-3234" y="640" />
            </Array>
            <mxPoint x="-3948" y="734" as="sourcePoint" />
          </mxGeometry>
        </mxCell>
        <mxCell id="Ic_nfCB23JCT6eoH5YxT-107" style="edgeStyle=orthogonalEdgeStyle;rounded=0;orthogonalLoop=1;jettySize=auto;html=1;endArrow=none;endFill=0;" edge="1" parent="1" source="Ic_nfCB23JCT6eoH5YxT-102" target="Ic_nfCB23JCT6eoH5YxT-47">
          <mxGeometry relative="1" as="geometry">
            <Array as="points">
              <mxPoint x="-211" y="842" />
              <mxPoint x="-1860" y="842" />
            </Array>
          </mxGeometry>
        </mxCell>
        <mxCell id="Ic_nfCB23JCT6eoH5YxT-108" style="edgeStyle=orthogonalEdgeStyle;rounded=0;orthogonalLoop=1;jettySize=auto;html=1;endArrow=none;endFill=0;" edge="1" parent="1" source="Ic_nfCB23JCT6eoH5YxT-102" target="Ic_nfCB23JCT6eoH5YxT-19">
          <mxGeometry relative="1" as="geometry">
            <Array as="points">
              <mxPoint x="-211" y="842" />
              <mxPoint x="-1120" y="842" />
            </Array>
          </mxGeometry>
        </mxCell>
        <mxCell id="Ic_nfCB23JCT6eoH5YxT-109" style="edgeStyle=orthogonalEdgeStyle;rounded=0;orthogonalLoop=1;jettySize=auto;html=1;exitX=0.02;exitY=0.501;exitDx=0;exitDy=0;exitPerimeter=0;endArrow=none;endFill=0;" edge="1" parent="1" source="Ic_nfCB23JCT6eoH5YxT-102" target="Ic_nfCB23JCT6eoH5YxT-18">
          <mxGeometry relative="1" as="geometry">
            <Array as="points">
              <mxPoint x="-211" y="842" />
              <mxPoint x="-762" y="842" />
            </Array>
          </mxGeometry>
        </mxCell>
        <mxCell id="Ic_nfCB23JCT6eoH5YxT-110" style="edgeStyle=orthogonalEdgeStyle;rounded=0;orthogonalLoop=1;jettySize=auto;html=1;endArrow=none;endFill=0;" edge="1" parent="1" source="Ic_nfCB23JCT6eoH5YxT-100" target="Ic_nfCB23JCT6eoH5YxT-47">
          <mxGeometry relative="1" as="geometry">
            <Array as="points">
              <mxPoint x="-211" y="985" />
              <mxPoint x="-1860" y="985" />
            </Array>
          </mxGeometry>
        </mxCell>
        <mxCell id="Ic_nfCB23JCT6eoH5YxT-111" style="edgeStyle=orthogonalEdgeStyle;rounded=0;orthogonalLoop=1;jettySize=auto;html=1;endArrow=none;endFill=0;" edge="1" parent="1" source="Ic_nfCB23JCT6eoH5YxT-100" target="Ic_nfCB23JCT6eoH5YxT-41">
          <mxGeometry relative="1" as="geometry">
            <Array as="points">
              <mxPoint x="-211" y="985" />
              <mxPoint x="-2107" y="985" />
            </Array>
          </mxGeometry>
        </mxCell>
        <mxCell id="Ic_nfCB23JCT6eoH5YxT-112" style="edgeStyle=orthogonalEdgeStyle;rounded=0;orthogonalLoop=1;jettySize=auto;html=1;endArrow=none;endFill=0;" edge="1" parent="1" source="Ic_nfCB23JCT6eoH5YxT-100" target="Ic_nfCB23JCT6eoH5YxT-40">
          <mxGeometry relative="1" as="geometry">
            <Array as="points">
              <mxPoint x="-211" y="985" />
              <mxPoint x="-2233" y="985" />
            </Array>
          </mxGeometry>
        </mxCell>
        <mxCell id="Ic_nfCB23JCT6eoH5YxT-113" style="edgeStyle=orthogonalEdgeStyle;rounded=0;orthogonalLoop=1;jettySize=auto;html=1;entryX=1;entryY=0.5;entryDx=0;entryDy=0;entryPerimeter=0;endArrow=none;endFill=0;exitX=0;exitY=0.5;exitDx=0;exitDy=0;exitPerimeter=0;" edge="1" parent="1" source="Ic_nfCB23JCT6eoH5YxT-100" target="Ic_nfCB23JCT6eoH5YxT-39">
          <mxGeometry relative="1" as="geometry">
            <Array as="points">
              <mxPoint x="-211" y="985" />
              <mxPoint x="-2349" y="985" />
            </Array>
            <mxPoint x="-229" y="880" as="sourcePoint" />
          </mxGeometry>
        </mxCell>
        <mxCell id="Ic_nfCB23JCT6eoH5YxT-114" style="edgeStyle=orthogonalEdgeStyle;rounded=0;orthogonalLoop=1;jettySize=auto;html=1;endArrow=none;endFill=0;" edge="1" parent="1" source="Ic_nfCB23JCT6eoH5YxT-100" target="Ic_nfCB23JCT6eoH5YxT-38">
          <mxGeometry relative="1" as="geometry">
            <Array as="points">
              <mxPoint x="-211" y="985" />
              <mxPoint x="-2463" y="985" />
            </Array>
          </mxGeometry>
        </mxCell>
        <mxCell id="Ic_nfCB23JCT6eoH5YxT-115" style="edgeStyle=orthogonalEdgeStyle;rounded=0;orthogonalLoop=1;jettySize=auto;html=1;endArrow=none;endFill=0;" edge="1" parent="1" source="Ic_nfCB23JCT6eoH5YxT-100" target="Ic_nfCB23JCT6eoH5YxT-37">
          <mxGeometry relative="1" as="geometry">
            <Array as="points">
              <mxPoint x="-211" y="985" />
              <mxPoint x="-2574" y="985" />
            </Array>
          </mxGeometry>
        </mxCell>
        <mxCell id="Ic_nfCB23JCT6eoH5YxT-116" style="edgeStyle=orthogonalEdgeStyle;rounded=0;orthogonalLoop=1;jettySize=auto;html=1;endArrow=none;endFill=0;" edge="1" parent="1" source="Ic_nfCB23JCT6eoH5YxT-100" target="Ic_nfCB23JCT6eoH5YxT-36">
          <mxGeometry relative="1" as="geometry">
            <Array as="points">
              <mxPoint x="-211" y="985" />
              <mxPoint x="-2678" y="985" />
            </Array>
          </mxGeometry>
        </mxCell>
        <mxCell id="Ic_nfCB23JCT6eoH5YxT-117" value="" style="strokeWidth=2;html=1;shape=mxgraph.flowchart.terminator;whiteSpace=wrap;fontSize=10;direction=south;flipH=1;" vertex="1" parent="1">
          <mxGeometry x="-341" y="443" width="50" height="100" as="geometry" />
        </mxCell>
        <mxCell id="Ic_nfCB23JCT6eoH5YxT-118" style="edgeStyle=orthogonalEdgeStyle;rounded=0;orthogonalLoop=1;jettySize=auto;html=1;exitX=0;exitY=0.5;exitDx=0;exitDy=0;exitPerimeter=0;endArrow=none;endFill=0;" edge="1" parent="1" source="Ic_nfCB23JCT6eoH5YxT-29" target="Ic_nfCB23JCT6eoH5YxT-48">
          <mxGeometry relative="1" as="geometry">
            <Array as="points">
              <mxPoint x="-332" y="564" />
              <mxPoint x="-345" y="564" />
              <mxPoint x="-434" y="565" />
            </Array>
          </mxGeometry>
        </mxCell>
        <mxCell id="Ic_nfCB23JCT6eoH5YxT-119" style="edgeStyle=orthogonalEdgeStyle;rounded=0;orthogonalLoop=1;jettySize=auto;html=1;exitX=1;exitY=0.5;exitDx=0;exitDy=0;exitPerimeter=0;endArrow=none;endFill=0;" edge="1" parent="1" source="Ic_nfCB23JCT6eoH5YxT-32" target="Ic_nfCB23JCT6eoH5YxT-31">
          <mxGeometry relative="1" as="geometry">
            <Array as="points">
              <mxPoint x="-1712" y="533" />
              <mxPoint x="-1649" y="533" />
            </Array>
          </mxGeometry>
        </mxCell>
        <mxCell id="Ic_nfCB23JCT6eoH5YxT-120" style="edgeStyle=orthogonalEdgeStyle;rounded=0;orthogonalLoop=1;jettySize=auto;html=1;exitX=0;exitY=0.5;exitDx=0;exitDy=0;exitPerimeter=0;endArrow=none;endFill=0;" edge="1" parent="1" source="Ic_nfCB23JCT6eoH5YxT-117" target="Ic_nfCB23JCT6eoH5YxT-34">
          <mxGeometry relative="1" as="geometry">
            <Array as="points">
              <mxPoint x="-316" y="434" />
              <mxPoint x="-508" y="434" />
            </Array>
          </mxGeometry>
        </mxCell>
        <mxCell id="Ic_nfCB23JCT6eoH5YxT-122" style="edgeStyle=orthogonalEdgeStyle;rounded=0;orthogonalLoop=1;jettySize=auto;html=1;exitX=1;exitY=0.5;exitDx=0;exitDy=0;exitPerimeter=0;endArrow=none;endFill=0;" edge="1" parent="1" source="Ic_nfCB23JCT6eoH5YxT-32" target="Ic_nfCB23JCT6eoH5YxT-42">
          <mxGeometry relative="1" as="geometry">
            <Array as="points">
              <mxPoint x="-1712" y="533" />
              <mxPoint x="-1780" y="533" />
            </Array>
          </mxGeometry>
        </mxCell>
        <mxCell id="Ic_nfCB23JCT6eoH5YxT-123" style="edgeStyle=orthogonalEdgeStyle;rounded=0;orthogonalLoop=1;jettySize=auto;html=1;exitX=0;exitY=0.5;exitDx=0;exitDy=0;exitPerimeter=0;endArrow=none;endFill=0;" edge="1" parent="1" source="Ic_nfCB23JCT6eoH5YxT-9" target="Ic_nfCB23JCT6eoH5YxT-41">
          <mxGeometry relative="1" as="geometry" />
        </mxCell>
        <mxCell id="Ic_nfCB23JCT6eoH5YxT-124" style="edgeStyle=orthogonalEdgeStyle;rounded=0;orthogonalLoop=1;jettySize=auto;html=1;exitX=0;exitY=0.5;exitDx=0;exitDy=0;exitPerimeter=0;endArrow=none;endFill=0;" edge="1" parent="1" source="Ic_nfCB23JCT6eoH5YxT-9" target="Ic_nfCB23JCT6eoH5YxT-40">
          <mxGeometry relative="1" as="geometry" />
        </mxCell>
        <mxCell id="Ic_nfCB23JCT6eoH5YxT-125" style="edgeStyle=orthogonalEdgeStyle;rounded=0;orthogonalLoop=1;jettySize=auto;html=1;entryX=0;entryY=0.5;entryDx=0;entryDy=0;entryPerimeter=0;endArrow=none;endFill=0;" edge="1" parent="1" source="Ic_nfCB23JCT6eoH5YxT-27" target="Ic_nfCB23JCT6eoH5YxT-24">
          <mxGeometry relative="1" as="geometry">
            <Array as="points">
              <mxPoint x="-3515" y="406" />
              <mxPoint x="-3407" y="406" />
            </Array>
          </mxGeometry>
        </mxCell>
        <mxCell id="Ic_nfCB23JCT6eoH5YxT-126" style="edgeStyle=orthogonalEdgeStyle;rounded=0;orthogonalLoop=1;jettySize=auto;html=1;entryX=0;entryY=0.5;entryDx=0;entryDy=0;entryPerimeter=0;endArrow=none;endFill=0;" edge="1" parent="1" source="Ic_nfCB23JCT6eoH5YxT-27" target="Ic_nfCB23JCT6eoH5YxT-23">
          <mxGeometry relative="1" as="geometry" />
        </mxCell>
        <mxCell id="Ic_nfCB23JCT6eoH5YxT-128" style="edgeStyle=orthogonalEdgeStyle;rounded=0;orthogonalLoop=1;jettySize=auto;html=1;entryX=0;entryY=0.5;entryDx=0;entryDy=0;entryPerimeter=0;endArrow=none;endFill=0;" edge="1" parent="1" source="Ic_nfCB23JCT6eoH5YxT-25" target="Ic_nfCB23JCT6eoH5YxT-33">
          <mxGeometry relative="1" as="geometry">
            <Array as="points">
              <mxPoint x="-3173" y="536" />
              <mxPoint x="-3094" y="536" />
            </Array>
          </mxGeometry>
        </mxCell>
        <mxCell id="Ic_nfCB23JCT6eoH5YxT-129" style="edgeStyle=orthogonalEdgeStyle;rounded=0;orthogonalLoop=1;jettySize=auto;html=1;entryX=0;entryY=0.5;entryDx=0;entryDy=0;entryPerimeter=0;endArrow=none;endFill=0;" edge="1" parent="1" source="Ic_nfCB23JCT6eoH5YxT-25" target="Ic_nfCB23JCT6eoH5YxT-97">
          <mxGeometry relative="1" as="geometry">
            <Array as="points">
              <mxPoint x="-3173" y="769" />
              <mxPoint x="-3672" y="769" />
            </Array>
          </mxGeometry>
        </mxCell>
        <mxCell id="Ic_nfCB23JCT6eoH5YxT-131" style="edgeStyle=orthogonalEdgeStyle;rounded=0;orthogonalLoop=1;jettySize=auto;html=1;entryX=0;entryY=0.5;entryDx=0;entryDy=0;entryPerimeter=0;endArrow=none;endFill=0;" edge="1" parent="1" source="Ic_nfCB23JCT6eoH5YxT-22" target="Ic_nfCB23JCT6eoH5YxT-31">
          <mxGeometry relative="1" as="geometry" />
        </mxCell>
        <mxCell id="Ic_nfCB23JCT6eoH5YxT-133" style="edgeStyle=orthogonalEdgeStyle;rounded=0;orthogonalLoop=1;jettySize=auto;html=1;entryX=0;entryY=0.5;entryDx=0;entryDy=0;entryPerimeter=0;endArrow=none;endFill=0;" edge="1" parent="1" source="Ic_nfCB23JCT6eoH5YxT-34" target="Ic_nfCB23JCT6eoH5YxT-49">
          <mxGeometry relative="1" as="geometry">
            <Array as="points">
              <mxPoint x="-508" y="397" />
              <mxPoint x="-650" y="397" />
            </Array>
          </mxGeometry>
        </mxCell>
        <mxCell id="Ic_nfCB23JCT6eoH5YxT-134" style="edgeStyle=orthogonalEdgeStyle;rounded=0;orthogonalLoop=1;jettySize=auto;html=1;entryX=0;entryY=0.5;entryDx=0;entryDy=0;entryPerimeter=0;endArrow=none;endFill=0;" edge="1" parent="1" source="Ic_nfCB23JCT6eoH5YxT-20" target="Ic_nfCB23JCT6eoH5YxT-49">
          <mxGeometry relative="1" as="geometry" />
        </mxCell>
      </root>
    </mxGraphModel>
  </diagram>
</mxfile>
